<svg version="1" xmlns="http://www.w3.org/2000/svg" width="341.333" height="341.333" viewBox="0 0 256.000000 256.000000"><path d="M30 1.6C15.8 5.4 5.2 16.3 1.5 30.6.2 36 0 48.4.2 131.6l.3 94.9 3.3 6.7c4 8.3 10.5 14.9 18.6 19.1l6.1 3.2h199l6.1-3.2c8.1-4.2 14.6-10.8 18.6-19.1l3.3-6.7v-97c0-90.8-.1-97.3-1.8-102.2-3.8-10.8-13.4-20.5-24.7-25-4.2-1.7-11.1-1.8-99-2C49.1.1 34.7.3 30 1.6zm39.1 24.9c.1 2.2.1 4.7 0 5.5-.1 1 .5.7 1.5-.8 1.6-2.2 1.9-2.2 27-2.2 23 0 25.4.2 26.3 1.7.8 1.5 1 1 1.1-2.2 0-4.6.8-5.9 3.3-6.1 1.4-.2 1.7.7 1.7 5.5l.1 5.6 1.9-2.3c1.8-2.2 2-2.2 25.2-2l23.3.3.6 3c.5 2.1.7 1.1.8-3.5.1-6.2.2-6.5 2.6-6.5 2.5 0 2.5.1 2.5 9v9l26.3.3c14.4.2 26.4.5 26.5.7.2.2-.1 22.6-.8 49.7-1.2 48.3-1 126.6.4 132.1.4 1.9.3 2.7-.6 2.7-.8 0-.9.3-.3.8.6.4 1.1 1.3 1.3 2 .1.9-1.1 1-5.5.5-7.6-1-206-1-213.6 0-4.4.5-5.6.4-5.5-.5.2-.7.8-1.6 1.3-2 .6-.5.5-.8-.3-.8s-1-.9-.6-2.8c2.4-11.2 2.3-79.3-.2-161.5L14.7 40H64l-.1-3.3c-.1-1.7-.3-2.4-.6-1.4-1 3.7-9 4.9-11.1 1.7-.7-1.1-2.3-2-3.7-2-1.4 0-3 .9-3.7 2-1.5 2.3-5.8 2.7-5.8.6 0-.8-.6-1.6-1.2-1.8-.9-.3-.8-1.1.4-2.9 1.7-2.7 1.6-2.7 14.1-3.5 7.8-.5 9-.4 10.2 1.2 1.3 1.7 1.4 1.6 1.5-1.8 0-4.9.7-6.4 3-6.4 1.6 0 2 .8 2.1 4.1zm140.8 3.8c2.5.4 5.1 3.2 5.1 5.5 0 .7-.4 1-1 .7-.5-.3-1 .1-1 .9 0 2.3-3.3 2-4.8-.4-.7-1.1-2.3-2-3.7-2-1.4 0-3 .9-3.7 2-.9 1.4-2.4 2-5.1 2-7 0-9.5-3.1-6.4-8.1 1.1-1.9 1.9-2 9.7-1.5 4.7.2 9.6.6 10.9.9zm-2.9 7.2c0 .1-1.2.2-2.6.2-1.7 0-2.2-.2-1.3-.7 1-.7 3.9-.3 3.9.5zM13.1 228.7c1.3 1.6 1.2 1.7-.3.4-1-.7-1.8-1.5-1.8-1.7 0-.8.8-.3 2.1 1.3zm231.9-1.4c0 .2-1 1.2-2.2 2.3l-2.3 1.9 1.9-2.3c1.8-2.1 2.6-2.7 2.6-1.9zM25 237.6c0 .2-.9 0-2-.6s-2-1.3-2-1.6c0-.2.9 0 2 .6s2 1.3 2 1.6zm210-2.1c0 .2-1.3 1.1-3 2-3.8 1.9-4 1.1-.2-.9 3.1-1.7 3.2-1.8 3.2-1.1zM32 240c1.8 1.2.2 1.2-2.5 0-1.3-.6-1.5-.9-.5-.9.8 0 2.2.4 3 .9zm194.5 0c-2.7 1.2-4.3 1.2-2.5 0 .8-.5 2.2-.9 3-.9 1 0 .8.3-.5.9zm-8.1 2.1c-3.9.9-178.2.9-181.2.1-1.3-.4 39.6-.7 90.9-.7 51.3 0 92 .3 90.3.6z"/><path d="M124 35.5c0 3-3.9 3.5-26.9 3.5-21.4 0-23.2-.1-25-1.9-1.9-1.9-1.9-1.9-2.4.5l-.4 2.4H125v-3c0-1.7-.2-3-.5-3s-.5.7-.5 1.5zM130.8 37.2l-.5 2.8h24.3c13.3 0 24.9.3 25.8.6 1.2.5 1.6 0 1.6-2.1 0-2.7-.1-2.7-1.8-1.2-1.6 1.5-4.7 1.7-22.8 1.7-22.5 0-25.1-.3-25.6-2.9-.3-1-.6-.6-1 1.1zM64.5 44.6c-.3 1.6-1 4.3-1.6 6.1-1.7 5.3 1.9 9.5 6.1 7.3 2.2-1.2 3.4-4.5 2.4-6.2-.4-.7-1-2.8-1.4-4.8-.3-2.2-1.1-3.5-2-3.5-.8 0-1.8-.4-2.2-.9-.4-.6-.9.3-1.3 2zM180.8 48.3c-.3 3.4-.1 6.9.3 7.8 1.8 3.5 6.1 3.3 8-.3 1.4-2.6-1.5-12.1-3.6-12-.6 0-1.7-.4-2.6-.9-1.4-.7-1.7 0-2.1 5.4zM125.5 44.5c-.2.5-.6 2.1-.8 3.5-.3 1.4-.8 3.5-1.2 4.7-.7 2.1 2.3 6.3 4.5 6.3s5.2-4.2 4.5-6.3c-.4-1.2-.9-3.9-1.2-5.9-.4-3.3-.8-3.7-3-3.6-1.4.2-2.7.7-2.8 1.3zM188 70.7c-4.7 3.1-13.2 10.4-19 16.2-17.2 17.2-30.7 36.5-45.1 64.5l-7.6 14.8-9.6-18.3c-5.3-10.1-10-18.3-10.5-18.2-.5.1-9.5 5.4-20 11.8l-19.1 11.6 7.8 4c4.2 2.2 11.6 6.9 16.3 10.4 9.1 6.8 26.7 23.6 33.5 31.8l4 4.9 7.5-11.4c20.3-30.8 52-64.3 68.6-72.5 4.5-2.2 5.3-2.9 4.7-4.7-3.5-12.4-3.8-14.3-3.1-27.6.3-7.4.9-15.6 1.2-18.3.4-2.6.3-4.7-.2-4.7s-4.7 2.6-9.4 5.7zM142 185.5c0 .8-.4 1.5-.8 1.5-.5 0-.8 1.9-.8 4.2.1 3.2.5 4.4 1.8 4.6 1.4.3 1.6-.3 1.1-3.2-.4-2.9-.2-3.6 1.1-3.6.9 0 1.6-.5 1.6-1 0-.6-.4-1-1-1-.5 0-1-.7-1-1.5s-.4-1.5-1-1.5c-.5 0-1 .7-1 1.5zM158 185.4c0 .8-.6 1.7-1.2 2-.9.4-.9.8-.3 1.1.6.3.9 2.1.7 4-.3 2.7-.1 3.5 1.1 3.5.9 0 1.9-.5 2.2-1 .3-.6.1-1-.5-1-1.2 0-.3-4.1 1.1-5 1.3-.9-.2-5-1.7-5-.8 0-1.4.6-1.4 1.4zM147.6 189.5c.4 1.8.1 3.2-1.1 4.5-1.5 1.7-1.6 2-.3 2 .9 0 1.9-.7 2.2-1.7.6-1.4.8-1.4 2 .3 1.7 2.3 3.2 1.3 1.8-1.3-.8-1.4-.6-2.3 1-4.1 1.6-1.6 1.8-2.2.7-2.2-.8 0-2 .5-2.6 1.1-.8.8-1.3.8-1.7 0-1.3-2.1-2.6-1.1-2 1.4zM134 194.6c0 1.7 2.2 1.4 2.8-.4.2-.7-.3-1.2-1.2-1.2-.9 0-1.6.7-1.6 1.6zM68.8 221.7c2.3.2 6.1.2 8.5 0 2.3-.2.4-.4-4.3-.4s-6.6.2-4.2.4zM188.7 221.7c1.8.2 5 .2 7 0 2.1-.2.7-.4-3.2-.4-3.8 0-5.5.2-3.8.4zM26.3 222.7c.9.2 2.3.2 3 0 .6-.3-.1-.5-1.8-.5-1.6 0-2.2.2-1.2.5zM228.8 222.7c.7.3 1.6.2 1.9-.1.4-.3-.2-.6-1.3-.5-1.1 0-1.4.3-.6.6zM68.2 224.7c8.2.2 21.4.2 29.5 0 8.2-.1 1.5-.3-14.7-.3s-22.9.2-14.8.3zM166.3 224.7c7.5.2 19.9.2 27.5 0 7.5-.1 1.3-.3-13.8-.3-15.1 0-21.3.2-13.7.3zM26.3 225.7c2 .2 5.4.2 7.5 0 2-.2.3-.4-3.8-.4s-5.8.2-3.7.4zM223.8 225.7c1.7.2 4.7.2 6.5 0 1.7-.2.3-.4-3.3-.4-3.6 0-5 .2-3.2.4z"/></svg>